# xmcd
#
# Track frame offsets: 
#        182
#        13240
#        24612
#        38062
#        50627
#        65217
#        76975
#        90217
#        103497
#        116002
#        128555
#        144132
#        161515
#        178872
#
# Disc length: 2651 seconds
#
# Revision: 4
# Processed by: cddbd v1.5.2PL0 Copyright (c) Steve Scherf et al.
# Submitted via: ExactAudioCopy v0.99pb5
#
DISCID=ba0a590e
DTITLE=Percy Sledge - When a Man Loves a Woman
DYEAR=1994
DGENRE=Rhythmic Soul
TTITLE0=When A Man Loves A Woman
TTITLE1=(Sitting On) The Dock Of The Bay
TTITLE2=My Special Prayer
TTITLE3=Behind Closed Doors
TTITLE4=Warm And Tender Love
TTITLE5=Tell It Like It Is
TTITLE6=Take Time To Know Her
TTITLE7=I've Been Loving You Too Long
TTITLE8=It Tears Me Up
TTITLE9=Cover Me
TTITLE10=Bring It On Home To Me
TTITLE11=Try A Little Tenderness
TTITLE12=If Loving You Is Wrong
TTITLE13=You Send Me
EXTD=YEAR: 1994
EXTT0=
EXTT1=
EXTT2=
EXTT3=
EXTT4=
EXTT5=
EXTT6=
EXTT7=
EXTT8=
EXTT9=
EXTT10=
EXTT11=
EXTT12=
EXTT13=
PLAYORDER=
